<?xml version="1.0" encoding="UTF-8" standalone="no"?>
<!-- Generator: Avocode 2.4.3-3630f5a - http://avocode.com -->

<svg
   xmlns:dc="http://purl.org/dc/elements/1.1/"
   xmlns:cc="http://creativecommons.org/ns#"
   xmlns:rdf="http://www.w3.org/1999/02/22-rdf-syntax-ns#"
   xmlns:svg="http://www.w3.org/2000/svg"
   xmlns="http://www.w3.org/2000/svg"
   xmlns:sodipodi="http://sodipodi.sourceforge.net/DTD/sodipodi-0.dtd"
   xmlns:inkscape="http://www.inkscape.org/namespaces/inkscape"
   height="52"
   width="173"
   viewBox="0 0 173 52"
   id="svg3122"
   version="1.1"
   inkscape:version="0.48.5 r10040"
   sodipodi:docname="2-layers.svg">
  <metadata
     id="metadata3134">
    <rdf:RDF>
      <cc:Work
         rdf:about="">
        <dc:format>image/svg+xml</dc:format>
        <dc:type
           rdf:resource="http://purl.org/dc/dcmitype/StillImage" />
        <dc:title></dc:title>
      </cc:Work>
    </rdf:RDF>
  </metadata>
  <defs
     id="defs3132" />
  <sodipodi:namedview
     pagecolor="#ffffff"
     bordercolor="#666666"
     borderopacity="1"
     objecttolerance="10"
     gridtolerance="10"
     guidetolerance="10"
     inkscape:pageopacity="0"
     inkscape:pageshadow="2"
     inkscape:window-width="1115"
     inkscape:window-height="642"
     id="namedview3130"
     showgrid="false"
     inkscape:zoom="2.2485549"
     inkscape:cx="86.5"
     inkscape:cy="25.777635"
     inkscape:window-x="0"
     inkscape:window-y="130"
     inkscape:window-maximized="0"
     inkscape:current-layer="svg3122" />
  <path
     inkscape:connector-curvature="0"
     id="path3141"
     style="font-size:44px;font-style:italic;font-weight:300;fill:#ffffff;font-family:Open Sans"
     d="m 4.4042969,49 -2.2128906,0 6.6601562,-31.410156 15.2109375,0 -0.429688,2.019531 -12.976562,0 -2.8789063,13.320312 12.2460933,0 -0.451171,2.041016 -12.2246098,0 L 4.4042969,49" />
  <path
     inkscape:connector-curvature="0"
     id="path3143"
     style="font-size:44px;font-style:italic;font-weight:300;fill:#ffffff;font-family:Open Sans"
     d="m 23.246094,49 6.660156,-31.410156 2.191406,0 -6.208984,29.347656 13.341797,0 L 38.736328,49 23.246094,49" />
  <path
     inkscape:connector-curvature="0"
     id="path3145"
     style="font-size:44px;font-style:italic;font-weight:300;fill:#ffffff;font-family:Open Sans"
     d="m 58.544922,37.828125 -11,0 L 41.378906,49 l -2.513672,0 17.660157,-31.539063 1.439453,0 L 62.283203,49 60.027344,49 58.544922,37.828125 m -0.257813,-1.976563 -0.83789,-6.251953 c -0.444026,-3.466123 -0.723323,-6.345026 -0.837891,-8.636718 -0.429702,0.902371 -0.895197,1.833359 -1.396484,2.792968 -0.486993,0.95966 -2.678397,4.991557 -6.574219,12.095703 l 9.646484,0" />
  <path
     inkscape:connector-curvature="0"
     id="path3147"
     style="font-size:44px;font-style:italic;font-weight:300;fill:#ffffff;font-family:Open Sans"
     d="m 118.29102,49 -2.14844,0 3.24414,-15.447266 -16.32813,0 L 99.85742,49 l -2.21289,0 6.66016,-31.410156 2.1914,0 -2.98632,13.943359 16.32812,0 2.94336,-13.943359 2.14844,0 L 118.29102,49" />
  <path
     inkscape:connector-curvature="0"
     id="path3149"
     style="font-size:44px;font-style:italic;font-weight:300;fill:#ffffff;font-family:Open Sans"
     d="m 142.6543,49 -15.61914,0 6.66015,-31.410156 15.61914,0 -0.45117,2.019531 -13.40625,0 -2.51367,11.880859 12.67578,0 -0.45117,2.019532 -12.63281,0 -2.90039,13.470703 13.4707,0 L 142.6543,49" />
  <path
     inkscape:connector-curvature="0"
     id="path3151"
     style="font-size:44px;font-style:italic;font-weight:300;fill:#ffffff;font-family:Open Sans"
     d="m 167.01758,40.341797 c -2e-5,1.804694 -0.47268,3.416021 -1.41797,4.833984 -0.93101,1.403649 -2.21291,2.463543 -3.8457,3.179688 -1.63283,0.716146 -3.55926,1.074218 -5.7793,1.074218 -1.26042,0 -2.49936,-0.121745 -3.7168,-0.365234 -1.20313,-0.243489 -2.42773,-0.658853 -3.67383,-1.246094 l 0,-2.341797 c 2.33464,1.317711 4.82682,1.976565 7.47657,1.976563 2.69269,2e-6 4.80532,-0.615883 6.33789,-1.847656 1.54686,-1.246089 2.32029,-2.914707 2.32031,-5.00586 -2e-5,-0.873688 -0.12176,-1.618479 -0.36523,-2.234375 -0.24351,-0.630197 -0.62307,-1.195951 -1.13868,-1.697265 -0.50131,-0.50129 -1.15301,-0.988268 -1.95507,-1.460938 -0.78778,-0.472642 -1.72593,-1.009751 -2.81446,-1.611328 -2.14844,-1.088525 -3.65235,-2.263003 -4.51172,-3.523437 -0.84505,-1.260397 -1.26758,-2.735656 -1.26757,-4.425782 -1e-5,-1.690079 0.42252,-3.172499 1.26757,-4.447265 0.84505,-1.289034 2.02669,-2.284475 3.54493,-2.986328 1.51821,-0.716115 3.21548,-1.074187 5.09179,-1.074219 1.41796,3.2e-5 2.70702,0.128938 3.86719,0.386719 1.16014,0.24352 2.36326,0.673208 3.60937,1.289062 l -0.6875,2.019531 c -0.94533,-0.572888 -2.03387,-1.024059 -3.26562,-1.353515 -1.21747,-0.329397 -2.39194,-0.494111 -3.52344,-0.494141 -2.33465,3e-5 -4.19662,0.594431 -5.58594,1.783203 -1.375,1.174506 -2.0625,2.735703 -2.0625,4.683594 0,1.475282 0.35091,2.692729 1.05274,3.652344 0.70181,0.959654 2.0052,1.912127 3.91016,2.857422 2.20571,1.131526 3.7311,2.062515 4.57617,2.792968 0.85935,0.730483 1.49672,1.539727 1.91211,2.427735 0.42967,0.888032 0.64451,1.940765 0.64453,3.158203" />
  <path
     fill="#ffffff"
     fill-rule="evenodd"
     d="M 79.99 30.09 C 83.79 30.09 87.51 26.43 88.93 23.35 L 88.78 23.21 C 87.74 23.94 86.17 24.23 84.76 24.23 C 80.73 24.23 76.71 21.67 74.09 18.81 C 72.98 19.32 72.75 20.64 72.75 21.74 C 72.75 25.62 75.66 30.09 79.99 30.09 L 79.99 30.09 Z M 81.85 31.41 C 77.75 31.41 73.72 34.85 72.08 38.51 C 77.82 38.51 83.19 40.79 88.04 43.79 C 88.86 42.76 89.08 41.37 89.08 40.13 C 89.08 35.73 86.77 31.41 81.85 31.41 L 81.85 31.41 Z M 69.24 10.9 C 69.4 4.68 74.91 0.72 82.07 0.72 C 89.08 0.72 95.57 5.33 95.57 12.66 C 95.57 19.69 90.57 20.5 89.83 23.79 C 93.85 24.52 97.14 28.04 97.14 32.14 C 97.14 40.79 89.83 41 82.59 51.7 C 79.61 49.65 72.15 47.3 68.65 47.3 C 66.78 47.3 65.81 48.04 64.92 49.58 L 63.95 49.06 C 66.71 45.55 69.24 41.74 71.18 37.71 C 67.53 35.95 64.7 33.46 64.7 29.14 C 64.7 20.35 76.33 18.3 79.46 10.98 C 81.32 13.17 83.79 15 86.69 15 C 89.83 15 92.88 13.39 92.88 9.8 C 92.88 4.31 86.25 2.04 82.07 2.04 C 76.72 2.04 72.09 4.75 70.87 9.27 C 70.73 9.79 70.63 10.33 70.59 10.9 L 69.24 10.9 L 69.24 10.9 Z M 70.59 10.9 L 69.24 10.9 L 70.59 10.9 L 70.59 10.9 Z M 70.59 10.9"
     id="path3128"
     style="fill:#ffffff" />
</svg>
