<?xml version="1.0" encoding="utf-8"?>
<!-- Generator: Adobe Illustrator 24.1.0, SVG Export Plug-In . SVG Version: 6.00 Build 0)  -->
<svg version="1.1" id="Livello_1" xmlns="http://www.w3.org/2000/svg" xmlns:xlink="http://www.w3.org/1999/xlink" x="0px" y="0px"
	 viewBox="0 0 230 92" style="enable-background:new 0 0 230 92;" xml:space="preserve">
<style type="text/css">
	.st0{fill:#241F20;}
	.st1{fill:#3A9CC1;}
</style>
<g id="_x23_ffffffff">
</g>
<g>
	<g>
		<g>
			<g>
				<g>
					<path class="st0" d="M109.3,25.5c-14.7,0.2-25.7,11-25.7,25.6c0,13.8,11.5,24.6,25.9,24.6c14.9,0,26.2-11.7,26-25.1
						C135.8,37.1,124.1,25.3,109.3,25.5z M109.6,63.5c-6.9,0-12.3-5.7-12.3-13c0-6.6,4.8-13,12.3-12.8c6.5,0.2,12.3,5.5,12.2,13
						C121.7,58,116.5,63.5,109.6,63.5z"/>
					<path class="st0" d="M66.2,27.1c-2.4-0.4-4.7-0.5-7.1-0.6h-6.7c-0.4,0-0.8,0-1.1,0h-11v48.4h13.6v-8.5V62v-0.7v-0.1h0.9h5.6v0
						c2.2,0,4.4-0.2,6.5-0.7c6.2-1.4,11-4.6,13-10.7C82.9,40.8,80.4,29.3,66.2,27.1z M61.4,50.6h-7.5v-0.4V38.3v-0.4h0.9
						c0,0,0,0,0,0c0,0,0,0,0.1,0h2.5c0.2,0,0.4,0,0.6,0h1.9c0.1,0,0.2,0,0.4,0h1.1c3.5,0,6.4,2.8,6.4,6.4S64.9,50.6,61.4,50.6z"/>
					<path class="st0" d="M185.5,38.4H199h0.8v0.9c0,0,0,0,0,0v35.6h13.6V39v-0.6h0.6h14V26.5h-42.6V38.4z"/>
				</g>
			</g>
			<path class="st1" d="M174.9,40.6c-1.7-0.3-1.9-1-0.8-2.3c0.9-1.1,1.9-2.1,2.9-3c5.6-5.4,6.2-15.1,0.5-22
				c-1.8-2.2-4.2-3.8-6.7-4.8c-2.6-1.1-5.5-1.6-8.3-1.6c-2.8,0-5.6,0.6-8.2,1.8c-2.7,1.2-5.2,3.2-6.7,5.8c-1,1.7-1.6,3.5-1.9,5.5
				c-0.3,2.5,0.5,5.8,3.2,6.6c2,0.6,3.9-0.2,4.9-2.1c-0.1,0.2-1.1,0.1-1.2,0.1c-0.5,0-1-0.2-1.4-0.3c-3.5-1.4-3.7-5.7-1.8-8.6
				c0.1-0.2,0.3-0.4,0.4-0.6c1.8-2.4,4.6-4.1,7.4-5c0.7-0.3,1.5-0.5,2.2-0.6c2.9-0.6,5.9-0.6,8.8,0.1c2.6,0.7,5,1.9,6.9,3.9
				c2.2,2.3,3.4,5.1,2.6,8.5c-0.7,2.9-2.6,4.5-5.2,5.2c-2.9,0.8-5.7,0.5-8.3-1.2c-1.7-1.1-3.1-2.5-4.6-4.1c-1.3,2.7-2.9,4.9-5,6.7
				c-2.1,1.8-4.3,3.5-6.4,5.3c-1.5,1.2-2.9,2.5-4.3,3.8c-6,5.9-6.7,16.6,2.9,21.8c1.3,0.7,1.4,1.4,0.7,2.6c-1.4,2.8-3,5.6-4.7,8.2
				c-0.8,1.3-1.6,2.5-2.5,3.7c-0.4,0.6-0.9,1.2-1.3,1.8c-0.3,0.4-0.4,0.8,0.1,1.2c0.7,0.5,1.1,0.1,1.4-0.5c1.3-2.1,3.2-2.6,5.4-2.3
				c5.9,0.7,11.4,2.6,16.6,5.5c1.2,0.7,1.7,0.5,2.4-0.6c3.6-5.4,7.9-10,12.7-14.1c4.2-3.6,6.3-7.9,6.1-13.5
				C183.3,46.6,179.1,41.3,174.9,40.6z M150.6,34.7c0.7-1.7,1.3-1.8,2.5-0.6c2.5,2.6,5.4,4.6,8.8,5.8c2,0.7,4,1,6.1,0.7
				c0.7-0.1,1.3-0.2,1.9-0.4c0.5-0.1,1-0.3,1.5-0.5c0.2,0,0.4-0.1,0.5,0.1c0.1,0.1,0,0.3,0,0.4c-0.1,0.1-0.2,0.3-0.3,0.4
				c-0.2,0.3-0.4,0.6-0.6,0.9c-0.4,0.6-0.8,1.2-1.2,1.7c-0.1,0.2-0.2,0.3-0.4,0.4c-1.1,1.3-2.3,2.5-3.8,3.4
				c-0.4,0.3-0.8,0.5-1.2,0.7c-4.3,2.3-8.5,1.3-11.5-2.6c-1.7-2.2-2.6-4.8-2.8-7.6C150.2,36.7,150.2,35.7,150.6,34.7z M171.8,67.2
				c-0.4,1.2-0.9,1.6-2.1,0.8c-6.1-3.9-12.7-6.5-20.3-6.8c2.7-5.1,6.1-8.8,11.5-9.9c3.9-0.8,7.3,0.5,9.5,4.2
				C172.4,59.2,173.1,63.1,171.8,67.2z"/>
		</g>
	</g>
	<g>
		<path class="st1" d="M7.5,32.2L4.1,33L3,28.6l6-1.7h4.1v20.5H7.5V32.2z"/>
		<path class="st1" d="M16.3,37.3L16.3,37.3c0-5.8,3.7-10.7,9.5-10.7c5.8,0,9.4,4.8,9.4,10.5v0.1c0,5.8-3.6,10.6-9.5,10.6
			S16.3,43.1,16.3,37.3z M29.4,37.3L29.4,37.3c0-3.3-1.5-5.6-3.8-5.6c-2.2,0-3.7,2.3-3.7,5.5v0.1c0,3.3,1.5,5.6,3.8,5.6
			S29.4,40.5,29.4,37.3z"/>
	</g>
</g>
</svg>
