<?xml version="1.0" encoding="UTF-8" ?>
<!DOCTYPE svg PUBLIC "-//W3C//DTD SVG 1.1//EN" "http://www.w3.org/Graphics/SVG/1.1/DTD/svg11.dtd">
<svg width="230pt" height="92pt" viewBox="0 0 230 92" version="1.1" xmlns="http://www.w3.org/2000/svg">
<g id="#ffffffff">
</g>
<g id="#17a4c5ff">
<path fill="#17a4c5" opacity="1.00" d=" M 142.65 8.63 C 151.43 3.81 163.66 4.91 170.59 12.45 C 175.68 17.83 176.68 26.60 173.02 33.01 C 170.99 35.94 168.26 38.30 166.22 41.23 C 169.04 42.37 172.03 43.53 174.07 45.90 C 179.04 51.06 178.48 59.78 174.20 65.19 C 170.78 69.45 166.15 72.52 162.45 76.52 C 159.80 79.27 157.59 82.40 155.19 85.36 C 148.47 81.52 140.83 78.79 133.06 78.56 C 130.12 78.02 129.19 83.39 126.59 81.20 C 130.65 75.63 134.51 69.91 137.56 63.71 C 134.72 61.87 131.61 60.12 129.77 57.16 C 126.81 52.43 127.25 45.96 130.57 41.51 C 136.14 33.92 146.27 30.66 150.38 21.83 C 153.16 24.34 156.00 27.20 159.86 27.84 C 163.72 28.47 168.52 27.03 170.19 23.20 C 171.83 19.29 170.18 14.56 166.83 12.11 C 159.29 6.37 147.27 6.52 140.59 13.53 C 138.82 15.79 136.41 18.82 138.07 21.77 C 139.13 24.43 142.09 25.02 144.60 25.37 C 143.18 26.33 141.80 27.66 139.95 27.53 C 136.77 27.32 134.36 24.15 134.76 21.04 C 135.01 15.88 138.13 11.08 142.65 8.63 M 140.52 37.04 C 139.69 43.47 144.17 51.00 151.05 51.47 C 157.10 51.26 161.73 46.41 164.66 41.53 C 156.77 44.50 148.39 40.69 142.85 34.98 C 141.59 33.44 140.49 35.93 140.52 37.04 M 140.90 61.95 C 140.25 62.58 139.36 64.83 141.06 64.58 C 149.26 64.96 156.83 68.52 163.77 72.65 C 166.70 66.15 164.38 56.38 156.97 54.15 C 150.57 52.49 144.38 56.90 140.90 61.95 Z" />
</g>
<g id="#312d2eff">
<path fill="#312d2e" opacity="1.00" d=" M 1.95 26.79 C 3.55 26.75 5.15 26.71 6.75 26.67 C 6.79 28.27 6.84 29.87 6.88 31.47 C 5.26 31.51 3.63 31.55 2.01 31.57 C 1.99 29.98 1.98 28.38 1.95 26.79 Z" />
<path fill="#312d2e" opacity="1.00" d=" M 88.47 26.62 C 97.71 24.34 108.16 26.04 115.50 32.34 C 126.82 41.47 128.34 59.92 118.93 70.93 C 109.43 82.77 90.45 84.64 78.50 75.49 C 67.90 67.87 64.59 52.24 70.70 40.80 C 74.14 33.73 80.96 28.68 88.47 26.62 M 92.47 39.68 C 86.43 41.50 82.47 47.86 82.97 54.07 C 83.11 61.34 89.44 68.07 96.91 67.65 C 104.90 67.62 110.80 59.52 109.73 51.90 C 109.33 43.61 100.51 37.07 92.47 39.68 Z" />
<path fill="#312d2e" opacity="1.00" d=" M 9.46 26.73 C 11.06 26.73 12.66 26.73 14.27 26.73 C 14.28 34.25 14.29 41.76 14.28 49.28 C 12.67 49.29 11.06 49.29 9.45 49.29 C 9.41 41.77 9.45 34.25 9.46 26.73 Z" />
<path fill="#312d2e" opacity="1.00" d=" M 19.76 26.76 C 27.49 26.77 35.23 26.73 42.96 26.77 C 49.10 26.93 55.71 28.35 60.19 32.85 C 67.73 40.83 66.37 55.94 56.57 61.54 C 50.07 65.66 42.12 65.03 34.78 65.00 C 34.79 70.08 34.79 75.17 34.79 80.25 C 29.77 80.28 24.76 80.27 19.74 80.26 C 19.73 62.43 19.75 44.59 19.76 26.76 M 34.73 39.50 C 34.75 44.07 34.74 48.64 34.76 53.21 C 38.79 53.00 43.20 54.00 46.90 51.99 C 51.12 49.63 51.04 42.50 46.61 40.40 C 42.90 38.73 38.67 39.75 34.73 39.50 Z" />
<path fill="#312d2e" opacity="1.00" d=" M 180.22 26.84 C 195.81 26.65 211.39 26.81 226.98 26.75 C 226.94 31.16 226.95 35.57 226.98 39.98 C 221.65 39.96 216.31 39.97 210.98 39.97 C 211.01 53.40 211.00 66.83 211.00 80.27 C 206.07 80.26 201.13 80.28 196.20 80.25 C 196.21 66.82 196.24 53.40 196.27 39.97 C 190.92 39.96 185.57 40.00 180.23 39.94 C 180.28 35.57 180.32 31.20 180.22 26.84 Z" />
<path fill="#312d2e" opacity="1.00" d=" M 2.00 32.42 C 3.62 32.46 5.25 32.50 6.87 32.55 C 6.78 38.12 6.87 43.69 6.86 49.26 C 5.24 49.27 3.62 49.29 2.00 49.30 C 2.00 43.67 2.01 38.05 2.00 32.42 Z" />
</g>
</svg>
